<?xml version="1.0"?>
<svg xmlns="http://www.w3.org/2000/svg" id="Layer_3" data-name="Layer 3" viewBox="0 0 64 64" width="512" height="512"><path d="M62.707,31.293l-30-30a1,1,0,0,0-1.414,0l-30,30A1,1,0,0,0,2,33H7V57H6a1,1,0,0,0-1,1v4a1,1,0,0,0,1,1H58a1,1,0,0,0,1-1V58a1,1,0,0,0-1-1H57V33h5a1,1,0,0,0,.707-1.707ZM57,61H7V59H57ZM22.72,45l-2.332-7h1.891l1.773,5.316A1,1,0,0,0,25,44h4a1,1,0,0,1,1,1ZM32,47V57H18V47Zm14,1V46H44V44h3a1,1,0,0,0,1-1V40a1,1,0,0,1,1,1v8a1,1,0,0,1-1,1H41a1,1,0,0,0-1,1v6H38V51a3,3,0,0,1,3-3Zm-2-6V41a1,1,0,0,1,1-1h1v2Zm1,15V55h2v2Zm-3-2h1v2H42Zm0-2V52h6a2.966,2.966,0,0,0,1-.184V53Zm7,4V55h1a1,1,0,0,0,1-1V41a3,3,0,0,0-3-3H45a3,3,0,0,0-3,3v1H38v2h4v2H41a5.006,5.006,0,0,0-5,5v6H34V46a1,1,0,0,0-1-1H32a3,3,0,0,0-3-3H25.721l-1.773-5.316A1,1,0,0,0,23,36H19a1,1,0,0,0-.948,1.316L20.613,45H17a1,1,0,0,0-1,1V57H9V32.414l22-22V19.1A5.009,5.009,0,0,0,27,24a1,1,0,0,0,1,1h1a3,3,0,0,0,6,0h1a1,1,0,0,0,1-1,5.009,5.009,0,0,0-4-4.9V10.414l22,22V57ZM33,25a1,1,0,0,1-2,0Zm-3.829-2a3,3,0,0,1,5.658,0Zm27.243,8L32.707,7.293a1,1,0,0,0-1.414,0L7.586,31H4.414L32,3.414,59.586,31Z"/><path d="M50,34a4,4,0,1,0-4,4A4,4,0,0,0,50,34Zm-4,2a2,2,0,1,1,2-2A2,2,0,0,1,46,36Z"/></svg>
